<?xml version="1.0" encoding="UTF-8" standalone="no"?>
<svg
   xmlns:dc="http://purl.org/dc/elements/1.1/"
   xmlns:cc="http://creativecommons.org/ns#"
   xmlns:rdf="http://www.w3.org/1999/02/22-rdf-syntax-ns#"
   xmlns:svg="http://www.w3.org/2000/svg"
   xmlns="http://www.w3.org/2000/svg"
   viewBox="0 0 22 22"
   version="1.1"
   id="svg2"
   height="22"
   width="22">
  <defs
     id="defs4">
    <style
       id="current-color-scheme"
       type="text/css">
      .ColorScheme-Text {
        color:#4d4d4d;
      }
      .ColorScheme-Background {
        color:#eff0f1;
      }
      .ColorScheme-Highlight {
        color:#3daee9;
      }
      .ColorScheme-ViewText {
        color:#31363b;
      }
      .ColorScheme-ViewBackground {
        color:#fcfcfc;
      }
      .ColorScheme-ViewHover {
        color:#93cee9;
      }
      .ColorScheme-ViewFocus{
        color:#3daee9;
      }
      .ColorScheme-ButtonText {
        color:#31363b;
      }
      .ColorScheme-ButtonBackground {
        color:#eff0f1;
      }
      .ColorScheme-ButtonHover {
        color:#93cee9;
      }
      .ColorScheme-ButtonFocus{
        color:#3daee9;
      }
      </style>
  </defs>
  <metadata
     id="metadata7">
    <rdf:RDF>
      <cc:Work
         rdf:about="">
        <dc:format>image/svg+xml</dc:format>
        <dc:type
           rdf:resource="http://purl.org/dc/dcmitype/StillImage" />
        <dc:title></dc:title>
      </cc:Work>
    </rdf:RDF>
  </metadata>
  <g
     transform="translate(0,-1030.3622)"
     id="layer1">
    <path
       class="ColorScheme-Text"
       id="rect4216"
       transform="translate(0,1030.3622)"
       d="M 13.699219 3 L 12.992188 3.7070312 L 15.285156 6 L 13 6 L 11.992188 6 L 11.5 6 C 7.899 6 5 8.899 5 12.5 C 5 16.101 7.899 19 11.5 19 L 13 19 L 13 18 L 11.5 18 C 8.453 18 6 15.547 6 12.5 C 6 9.453 8.453 7 11.5 7 L 11.992188 7 L 13 7 L 15.285156 7 L 12.992188 9.2929688 L 13.699219 10 L 16.992188 6.7070312 L 17.199219 6.5 L 16.992188 6.2929688 L 13.699219 3 z "
       style="opacity:1;fill:currentColor;fill-opacity:1;stroke:none" />
  </g>
</svg>
