<?xml version="1.0" encoding="UTF-8" standalone="no"?>
<!-- Created with Inkscape (http://www.inkscape.org/) -->

<svg
   xmlns:dc="http://purl.org/dc/elements/1.1/"
   xmlns:cc="http://creativecommons.org/ns#"
   xmlns:rdf="http://www.w3.org/1999/02/22-rdf-syntax-ns#"
   xmlns:svg="http://www.w3.org/2000/svg"
   xmlns="http://www.w3.org/2000/svg"
   xmlns:sodipodi="http://sodipodi.sourceforge.net/DTD/sodipodi-0.dtd"
   xmlns:inkscape="http://www.inkscape.org/namespaces/inkscape"
   width="34.133335"
   height="34.133335"
   viewBox="0 0 32.000001 32"
   id="svg2"
   version="1.1"
   inkscape:version="0.92.1 r"
   sodipodi:docname="musrWiz-32x32-dark.svg">
  <defs
     id="defs4">
    <inkscape:perspective
       sodipodi:type="inkscape:persp3d"
       inkscape:vp_x="0 : 10.999999 : 1"
       inkscape:vp_y="0 : 999.99995 : 0"
       inkscape:vp_z="21.999999 : 10.999999 : 1"
       inkscape:persp3d-origin="10.999999 : 7.3333329 : 1"
       id="perspective3013" />
    <inkscape:perspective
       id="perspective3023"
       inkscape:persp3d-origin="0.49999997 : 0.33333331 : 1"
       inkscape:vp_z="0.99999994 : 0.49999998 : 1"
       inkscape:vp_y="0 : 999.99995 : 0"
       inkscape:vp_x="0 : 0.49999998 : 1"
       sodipodi:type="inkscape:persp3d" />
    <inkscape:perspective
       id="perspective3066"
       inkscape:persp3d-origin="0.49999997 : 0.33333331 : 1"
       inkscape:vp_z="0.99999994 : 0.49999998 : 1"
       inkscape:vp_y="0 : 999.99995 : 0"
       inkscape:vp_x="0 : 0.49999998 : 1"
       sodipodi:type="inkscape:persp3d" />
    <inkscape:perspective
       id="perspective3088"
       inkscape:persp3d-origin="0.49999997 : 0.33333331 : 1"
       inkscape:vp_z="0.99999994 : 0.49999998 : 1"
       inkscape:vp_y="0 : 999.99995 : 0"
       inkscape:vp_x="0 : 0.49999998 : 1"
       sodipodi:type="inkscape:persp3d" />
  </defs>
  <sodipodi:namedview
     id="base"
     pagecolor="#ffffff"
     bordercolor="#666666"
     borderopacity="1.0"
     inkscape:pageopacity="0.0"
     inkscape:pageshadow="2"
     inkscape:zoom="26.6875"
     inkscape:cx="2.6229508"
     inkscape:cy="16.897709"
     inkscape:document-units="px"
     inkscape:current-layer="layer1"
     showgrid="true"
     units="pt"
     inkscape:window-width="1920"
     inkscape:window-height="1019"
     inkscape:window-x="0"
     inkscape:window-y="0"
     inkscape:window-maximized="1"
     inkscape:snap-grids="true"
     showguides="true"
     borderlayer="true"
     inkscape:showpageshadow="false">
    <inkscape:grid
       type="xygrid"
       id="grid5486"
       originx="0"
       originy="0"
       spacingx="1"
       spacingy="1" />
  </sodipodi:namedview>
  <metadata
     id="metadata7">
    <rdf:RDF>
      <cc:Work
         rdf:about="">
        <dc:format>image/svg+xml</dc:format>
        <dc:type
           rdf:resource="http://purl.org/dc/dcmitype/StillImage" />
        <dc:title />
      </cc:Work>
    </rdf:RDF>
  </metadata>
  <g
     inkscape:label="Layer 1"
     inkscape:groupmode="layer"
     id="layer1"
     transform="translate(0,-1020.3622)">
    <path
       sodipodi:type="star"
       style="fill:#f2f2f2;fill-opacity:1;stroke:none"
       id="path3056"
       sodipodi:sides="4"
       sodipodi:cx="6"
       sodipodi:cy="1029.3622"
       sodipodi:r1="4"
       sodipodi:r2="2"
       sodipodi:arg1="0"
       sodipodi:arg2="0.78539816"
       inkscape:flatsided="false"
       inkscape:rounded="0.1"
       inkscape:randomized="0"
       d="m 10,1029.3622 c 0,0.2947 -2.3773843,1.2058 -2.5857864,1.4142 -0.2084022,0.2084 -1.1194884,2.5858 -1.4142136,2.5858 -0.2947252,0 -1.2058114,-2.3774 -1.4142136,-2.5858 C 4.3773843,1030.568 2,1029.6569 2,1029.3622 c 0,-0.2947 2.3773843,-1.2058 2.5857864,-1.4142 0.2084022,-0.2084 1.1194884,-2.5858 1.4142136,-2.5858 0.2947252,0 1.2058114,2.3774 1.4142136,2.5858 C 7.6226157,1028.1564 10,1029.0675 10,1029.3622 Z" />
    <path
       sodipodi:type="star"
       style="fill:#f2f2f2;fill-opacity:1;stroke:none"
       id="path3056-3"
       sodipodi:sides="4"
       sodipodi:cx="15"
       sodipodi:cy="1024.3622"
       sodipodi:r1="3"
       sodipodi:r2="1.5"
       sodipodi:arg1="0"
       sodipodi:arg2="0.78539816"
       inkscape:flatsided="false"
       inkscape:rounded="0.1"
       inkscape:randomized="0"
       d="m 18,1024.3622 c 0,0.221 -1.783038,0.9043 -1.93934,1.0606 -0.156301,0.1563 -0.839616,1.9394 -1.06066,1.9394 -0.221044,0 -0.904359,-1.7831 -1.06066,-1.9394 C 13.783038,1025.2665 12,1024.5832 12,1024.3622 c 0,-0.2211 1.783038,-0.9044 1.93934,-1.0607 0.156301,-0.1563 0.839616,-1.9393 1.06066,-1.9393 0.221044,0 0.904359,1.783 1.06066,1.9393 0.156302,0.1563 1.93934,0.8396 1.93934,1.0607 z" />
    <path
       sodipodi:type="star"
       style="fill:#f2f2f2;fill-opacity:1;stroke:none"
       id="path3056-3-4"
       sodipodi:sides="4"
       sodipodi:cx="25"
       sodipodi:cy="1042.3622"
       sodipodi:r1="3"
       sodipodi:r2="1.5"
       sodipodi:arg1="0"
       sodipodi:arg2="0.78539816"
       inkscape:flatsided="false"
       inkscape:rounded="0.1"
       inkscape:randomized="0"
       d="m 28,1042.3622 c 0,0.221 -1.783038,0.9043 -1.93934,1.0606 -0.156301,0.1563 -0.839616,1.9394 -1.06066,1.9394 -0.221044,0 -0.904359,-1.7831 -1.06066,-1.9394 C 23.783038,1043.2665 22,1042.5832 22,1042.3622 c 0,-0.2211 1.783038,-0.9044 1.93934,-1.0607 0.156301,-0.1563 0.839616,-1.9393 1.06066,-1.9393 0.221044,0 0.904359,1.783 1.06066,1.9393 0.156302,0.1563 1.93934,0.8396 1.93934,1.0607 z" />
    <rect
       style="fill:#f2f2f2;fill-opacity:1;stroke:#f2f2f2;stroke-width:1;stroke-linecap:butt;stroke-linejoin:round;stroke-miterlimit:4;stroke-dasharray:none;stroke-opacity:1"
       id="rect4712"
       width="28"
       height="4"
       x="-738.83655"
       y="742.13245"
       rx="0.40000001"
       ry="0.40000001"
       transform="rotate(-45)" />
    <rect
       style="fill:#f2f2f2;fill-opacity:1;stroke:#f2f2f2;stroke-width:1;stroke-linecap:butt;stroke-linejoin:round;stroke-miterlimit:4;stroke-dasharray:none;stroke-opacity:1"
       id="rect4714"
       width="4"
       height="4"
       x="-708.16895"
       y="742.12415"
       rx="0.40000001"
       ry="0.40000001"
       transform="rotate(-45)" />
  </g>
</svg>
