/* XPM */
static char * musrsinglehisto_xpm[] = {
"22 22 4 1",
" 	c None",
".	c #3D20CF",
"+	c #FF0000",
"@	c #000000",
"                      ",
".   . .  .. ..... ... ",
".++ . . .  .  .  .   .",
". + . . .     .  .   .",
"..... .  ..   .  .   .",
".  +. .    .  .  .   .",
".   . . .  .  .  .   .",
".   .+.  ..   .   ... ",
"@    +                ",
"@     +               ",
"@     +               ",
"@      ++             ",
"@        +            ",
"@         +           ",
"@         +           ",
"@         +           ",
"@          ++         ",
"@            +        ",
"@             ++      ",
"@              ++     ",
"@                ++   ",
"@@@@@@@@@@@@@@@@@@@+++"};
