/* XPM */
static char *dummy[]={
"22 22 3 1",
". c None",
"# c #000000",
"a c #ff0000",
"..##....###...##......",
"......................",
"######################",
"......................",
".........a............",
".........a............",
".........a............",
".........a............",
".........aa...........",
"........aaa...........",
"........aaa...........",
"........a.a...........",
"........a.a...........",
".......aa.aa..........",
".......aa..aa.........",
"a.aaa..a....aaa...aa..",
"aa.aaa.a......aaa.aaaa",
"......a..........aa...",
"######################",
"......................",
".#######.####..####...",
"......................"};
