<?xml version="1.0" encoding="UTF-8" standalone="no"?>
<svg
   xmlns:dc="http://purl.org/dc/elements/1.1/"
   xmlns:cc="http://creativecommons.org/ns#"
   xmlns:rdf="http://www.w3.org/1999/02/22-rdf-syntax-ns#"
   xmlns:svg="http://www.w3.org/2000/svg"
   xmlns="http://www.w3.org/2000/svg"
   version="1.1"
   id="svg4183"
   height="22"
   width="22">
  <defs
     id="defs4185">
    <style
       id="current-color-scheme"
       type="text/css">
      .ColorScheme-Text {
        color:#4d4d4d;
      }
      .ColorScheme-Background {
        color:#eff0f1;
      }
      .ColorScheme-Highlight {
        color:#3daee9;
      }
      .ColorScheme-ViewText {
        color:#31363b;
      }
      .ColorScheme-ViewBackground {
        color:#fcfcfc;
      }
      .ColorScheme-ViewHover {
        color:#93cee9;
      }
      .ColorScheme-ViewFocus{
        color:#3daee9;
      }
      .ColorScheme-ButtonText {
        color:#31363b;
      }
      .ColorScheme-ButtonBackground {
        color:#eff0f1;
      }
      .ColorScheme-ButtonHover {
        color:#93cee9;
      }
      .ColorScheme-ButtonFocus{
        color:#3daee9;
      }
      </style>
  </defs>
  <metadata
     id="metadata4188">
    <rdf:RDF>
      <cc:Work
         rdf:about="">
        <dc:format>image/svg+xml</dc:format>
        <dc:type
           rdf:resource="http://purl.org/dc/dcmitype/StillImage" />
        <dc:title></dc:title>
      </cc:Work>
    </rdf:RDF>
  </metadata>
  <g
     transform="translate(0,-1030.3622)"
     id="layer1">
    <path
       class="ColorScheme-Text"
       id="rect4085"
       d="m 11,1049.3622 c -4.431966,0 -8,-3.568 -8,-8 0,-1.4417 0.382871,-2.7893 1.044922,-3.9551 l 0.738281,0.7383 C 4.285829,1039.1083 4,1040.1997 4,1041.3622 c 0,3.878 3.12203,7 7,7 1.162509,0 2.25389,-0.2858 3.216797,-0.7832 l 0.738281,0.7383 c -1.165789,0.662 -2.513364,1.0449 -3.955078,1.0449 z m 6.955078,-4.0449 -0.738281,-0.7383 C 17.714172,1043.6161 18,1042.5247 18,1041.3622 c 0,-3.878 -3.12203,-7 -7,-7 -1.16251,0 -2.25389,0.2858 -3.216797,0.7832 l -0.738281,-0.7383 c 1.165789,-0.662 2.513364,-1.0449 3.955078,-1.0449 4.431966,0 8,3.568 8,8 0,1.4417 -0.382871,2.7893 -1.044922,3.9551 z"
       style="fill:currentColor;fill-opacity:1;stroke:none" />
    <rect
       class="ColorScheme-Text"
       transform="matrix(0.70710678,-0.70710678,0.70710678,0.70710678,0,0)"
       y="737.3905"
       x="-726.45117"
       height="4"
       width="1"
       id="rect4336"
       style="text-decoration:none;text-decoration-line:none;text-decoration-style:solid;text-decoration-color:#000000;clip-rule:nonzero;display:inline;overflow:visible;visibility:visible;opacity:1;isolation:auto;mix-blend-mode:normal;color-interpolation:sRGB;color-interpolation-filters:linearRGB;solid-color:#000000;solid-opacity:1;fill:currentColor;fill-opacity:1;fill-rule:nonzero;stroke:none;stroke-width:1;stroke-linecap:butt;stroke-linejoin:miter;stroke-miterlimit:4;stroke-dasharray:none;stroke-dashoffset:0;stroke-opacity:1;color-rendering:auto;image-rendering:auto;shape-rendering:auto;text-rendering:auto;enable-background:accumulate" />
    <rect
       class="ColorScheme-Text"
       transform="matrix(0.70710678,-0.70710678,0.70710678,0.70710678,0,0)"
       y="746.88037"
       x="-731.69507"
       height="4"
       width="1"
       id="rect4336-5"
       style="text-decoration:none;text-decoration-line:none;text-decoration-style:solid;text-decoration-color:#000000;clip-rule:nonzero;display:inline;overflow:visible;visibility:visible;opacity:1;isolation:auto;mix-blend-mode:normal;color-interpolation:sRGB;color-interpolation-filters:linearRGB;solid-color:#000000;solid-opacity:1;fill:currentColor;fill-opacity:1;fill-rule:nonzero;stroke:none;stroke-width:1;stroke-linecap:butt;stroke-linejoin:miter;stroke-miterlimit:4;stroke-dasharray:none;stroke-dashoffset:0;stroke-opacity:1;color-rendering:auto;image-rendering:auto;shape-rendering:auto;text-rendering:auto;enable-background:accumulate" />
  </g>
</svg>
