/* XPM */
static char * musrprefs_xpm[] = {
"22 22 3 1",
" 	c None",
".	c #3D20CF",
"+	c #000000",
"...  ...  ... ... ... ",
".  . .  . .   .   .   ",
"...  ...  ... ... ... ",
".    .  . .   .     . ",
".    .  . ... .   ... ",
"                      ",
"  +       +           ",
" +   +     +          ",
"+  ++++ ++  +         ",
" + +    +  +          ",
"  +       +           ",
"                      ",
"  +              +    ",
" +  +    +  ++ ++ +   ",
"+  + +++ + + + +   +  ",
" +   +       +    +   ",
"  +              +    ",
"                      ",
"  +        +       +  ",
" +        +    +  + + ",
"+  + +++++++++ + ++  +",
" +  ++    ++ +      + "};
