<?xml version="1.0" encoding="UTF-8" standalone="no"?>
<svg
   xmlns:dc="http://purl.org/dc/elements/1.1/"
   xmlns:cc="http://creativecommons.org/ns#"
   xmlns:rdf="http://www.w3.org/1999/02/22-rdf-syntax-ns#"
   xmlns:svg="http://www.w3.org/2000/svg"
   xmlns="http://www.w3.org/2000/svg"
   viewBox="0 0 22 22"
   version="1.1"
   id="svg2"
   height="22"
   width="22">
  <title
     id="title4152">I REALLY hate this icon</title>
  <defs
     id="defs4">
    <style
       id="current-color-scheme"
       type="text/css">
      .ColorScheme-Text {
        color:#4d4d4d;
      }
      .ColorScheme-Background {
        color:#eff0f1;
      }
      .ColorScheme-Highlight {
        color:#3daee9;
      }
      .ColorScheme-ViewText {
        color:#31363b;
      }
      .ColorScheme-ViewBackground {
        color:#fcfcfc;
      }
      .ColorScheme-ViewHover {
        color:#93cee9;
      }
      .ColorScheme-ViewFocus{
        color:#3daee9;
      }
      .ColorScheme-ButtonText {
        color:#31363b;
      }
      .ColorScheme-ButtonBackground {
        color:#eff0f1;
      }
      .ColorScheme-ButtonHover {
        color:#93cee9;
      }
      .ColorScheme-ButtonFocus{
        color:#3daee9;
      }
      </style>
  </defs>
  <metadata
     id="metadata7">
    <rdf:RDF>
      <cc:Work
         rdf:about="">
        <dc:format>image/svg+xml</dc:format>
        <dc:type
           rdf:resource="http://purl.org/dc/dcmitype/StillImage" />
        <dc:title>I REALLY hate this icon</dc:title>
        <dc:description>Migh as well use Tango... for crying out loud. This damn icon has to die, but no because obviously we're still using floppies therefore it is still relevant in 2014.</dc:description>
        <dc:language>English</dc:language>
        <dc:rights>
          <cc:Agent>
            <dc:title />
          </cc:Agent>
        </dc:rights>
        <dc:creator>
          <cc:Agent>
            <dc:title>Uri Herrera</dc:title>
          </cc:Agent>
        </dc:creator>
        <dc:date>November 20th 2014</dc:date>
        <cc:license
           rdf:resource="" />
      </cc:Work>
    </rdf:RDF>
  </metadata>
  <g
     transform="translate(0,-1030.3622)"
     id="layer1">
    <g
       id="layer1-7">
      <path
         class="ColorScheme-Text"
         style="fill:currentColor;fill-opacity:1;stroke:none"
         d="m 3,3 0,1 0,15 1,0 15,0 0,-1 0,-11 0,-0.6992188 -0.0078,0 L 19,6.2929688 15.707031,3 15.699231,3.00781 15.699231,3 15,3 3,3 Z M 4,4 7,4 7,8 7,9 15,9 15,8 15,4 15.292969,4 18,6.7070312 18,7 l 0,11 -2,0 0,-7 -1,0 -8,0 -1,0 0,7 -2,0 0,-14 z m 4,0 3.900391,0 0,4 L 8,8 8,4 Z m -1,8 8,0 0,6 -8,0 0,-6 z"
         transform="translate(0,1030.3622)"
         id="rect4126" />
    </g>
  </g>
</svg>
