<?xml version="1.0" encoding="UTF-8" standalone="no"?>
<svg
   xmlns:dc="http://purl.org/dc/elements/1.1/"
   xmlns:cc="http://creativecommons.org/ns#"
   xmlns:rdf="http://www.w3.org/1999/02/22-rdf-syntax-ns#"
   xmlns:svg="http://www.w3.org/2000/svg"
   xmlns="http://www.w3.org/2000/svg"
   viewBox="0 0 22 22"
   version="1.1"
   id="svg2"
   height="22"
   width="22">
  <defs
     id="defs4">
    <style
       id="current-color-scheme"
       type="text/css">
      .ColorScheme-Text {
        color:#4d4d4d;
      }
      .ColorScheme-Background {
        color:#eff0f1;
      }
      .ColorScheme-Highlight {
        color:#3daee9;
      }
      .ColorScheme-ViewText {
        color:#31363b;
      }
      .ColorScheme-ViewBackground {
        color:#fcfcfc;
      }
      .ColorScheme-ViewHover {
        color:#93cee9;
      }
      .ColorScheme-ViewFocus{
        color:#3daee9;
      }
      .ColorScheme-ButtonText {
        color:#31363b;
      }
      .ColorScheme-ButtonBackground {
        color:#eff0f1;
      }
      .ColorScheme-ButtonHover {
        color:#93cee9;
      }
      .ColorScheme-ButtonFocus{
        color:#3daee9;
      }
      </style>
  </defs>
  <metadata
     id="metadata7">
    <rdf:RDF>
      <cc:Work
         rdf:about="">
        <dc:format>image/svg+xml</dc:format>
        <dc:type
           rdf:resource="http://purl.org/dc/dcmitype/StillImage" />
        <dc:title></dc:title>
      </cc:Work>
    </rdf:RDF>
  </metadata>
  <g
     transform="translate(0,-1030.3622)"
     id="layer1">
    <path
       class="ColorScheme-Text"
       id="rect4216"
       transform="translate(0,1030.3622)"
       d="M 8.3007812 3 L 5.0078125 6.2929688 L 4.8007812 6.5 L 5.0078125 6.7070312 L 8.3007812 10 L 9.0078125 9.2929688 L 6.7148438 7 L 9 7 L 10.007812 7 L 10.5 7 C 13.547 7 16 9.453 16 12.5 C 16 15.547 13.547 18 10.5 18 L 9 18 L 9 19 L 10.5 19 C 14.101 19 17 16.101 17 12.5 C 17 8.899 14.101 6 10.5 6 L 10.007812 6 L 9 6 L 6.7148438 6 L 9.0078125 3.7070312 L 8.3007812 3 z "
       style="opacity:1;fill:currentColor;fill-opacity:1;stroke:none" />
  </g>
</svg>
