<?xml version="1.0" encoding="UTF-8" standalone="no"?>
<svg
   xmlns:dc="http://purl.org/dc/elements/1.1/"
   xmlns:cc="http://creativecommons.org/ns#"
   xmlns:rdf="http://www.w3.org/1999/02/22-rdf-syntax-ns#"
   xmlns:svg="http://www.w3.org/2000/svg"
   xmlns="http://www.w3.org/2000/svg"
   version="1.1"
   id="svg2"
   viewBox="0 0 22.000001 22"
   height="22"
   width="22">
  <defs
     id="defs4">
    <marker
       style="overflow:visible"
       id="Arrow1Sstart"
       refX="0.0"
       refY="0.0"
       orient="auto">
      <path
         transform="scale(0.2) translate(6,0)"
         style="fill-rule:evenodd;stroke:#da4453;stroke-width:1pt;stroke-opacity:1;fill:#da4453;fill-opacity:1"
         d="M 0.0,0.0 L 5.0,-5.0 L -12.5,0.0 L 5.0,5.0 L 0.0,0.0 z "
         id="path8245" />
    </marker>
    <marker
       style="overflow:visible"
       id="Arrow2Mstart"
       refX="0.0"
       refY="0.0"
       orient="auto">
      <path
         transform="scale(0.6) translate(0,0)"
         d="M 8.7185878,4.0337352 L -2.2072895,0.016013256 L 8.7185884,-4.0017078 C 6.9730900,-1.6296469 6.9831476,1.6157441 8.7185878,4.0337352 z "
         style="fill-rule:evenodd;stroke-width:0.625;stroke-linejoin:round;stroke:#da4453;stroke-opacity:1;fill:#da4453;fill-opacity:1"
         id="path8257" />
    </marker>
    <marker
       style="overflow:visible;"
       id="Arrow1Lend"
       refX="0.0"
       refY="0.0"
       orient="auto">
      <path
         transform="scale(0.8) rotate(180) translate(12.5,0)"
         style="fill-rule:evenodd;stroke:#da4453;stroke-width:1pt;stroke-opacity:1;fill:#000000;fill-opacity:1"
         d="M 0.0,0.0 L 5.0,-5.0 L -12.5,0.0 L 5.0,5.0 L 0.0,0.0 z "
         id="path8236" />
    </marker>
  </defs>
  <metadata
     id="metadata7">
    <rdf:RDF>
      <cc:Work
         rdf:about="">
        <dc:format>image/svg+xml</dc:format>
        <dc:type
           rdf:resource="http://purl.org/dc/dcmitype/StillImage" />
        <dc:title></dc:title>
      </cc:Work>
    </rdf:RDF>
  </metadata>
  <g
     transform="translate(0,-1030.3622)"
     id="layer1">
    <path
       id="path16452"
       d="m 1.0000001,1033.8623 20.0000009,0"
       style="fill:none;fill-rule:evenodd;stroke:#4d4d4d;stroke-width:1px;stroke-linecap:butt;stroke-linejoin:miter;stroke-opacity:1" />
    <path
       id="path16452-0"
       d="m 16.000002,1035.8622 5,0"
       style="fill:none;fill-rule:evenodd;stroke:#4d4d4d;stroke-width:1.00000012;stroke-linecap:butt;stroke-linejoin:miter;stroke-miterlimit:4;stroke-dasharray:none;stroke-opacity:1" />
    <path
       id="path16452-4"
       d="m 16.000002,1037.8622 3,0"
       style="fill:none;fill-rule:evenodd;stroke:#4d4d4d;stroke-width:1px;stroke-linecap:butt;stroke-linejoin:miter;stroke-opacity:1" />
    <path
       id="path16452-4-6"
       d="m 16.000002,1039.8622 3,0"
       style="fill:none;fill-rule:evenodd;stroke:#4d4d4d;stroke-width:1px;stroke-linecap:butt;stroke-linejoin:miter;stroke-opacity:1" />
    <path
       id="path16452-4-0"
       d="m 16.000002,1041.8622 3,0"
       style="fill:none;fill-rule:evenodd;stroke:#4d4d4d;stroke-width:1px;stroke-linecap:butt;stroke-linejoin:miter;stroke-opacity:1" />
    <path
       id="path16452-4-1"
       d="m 16.000002,1043.8622 5,0"
       style="fill:none;fill-rule:evenodd;stroke:#4d4d4d;stroke-width:0.99999994px;stroke-linecap:butt;stroke-linejoin:miter;stroke-opacity:1" />
    <path
       id="path16642"
       d="m 1,1031.8622 2,0"
       style="fill:none;fill-rule:evenodd;stroke:#4d4d4d;stroke-width:1px;stroke-linecap:butt;stroke-linejoin:miter;stroke-opacity:1" />
    <path
       id="path16644"
       d="m 4,1031.8622 3,0"
       style="fill:none;fill-rule:evenodd;stroke:#4d4d4d;stroke-width:1px;stroke-linecap:butt;stroke-linejoin:miter;stroke-opacity:1" />
    <path
       id="path16646"
       d="m 8,1031.8622 1,0"
       style="fill:none;fill-rule:evenodd;stroke:#4d4d4d;stroke-width:1px;stroke-linecap:butt;stroke-linejoin:miter;stroke-opacity:1" />
    <path
       id="path16648"
       d="m 10,1031.8622 3,0"
       style="fill:#000000;fill-opacity:1;fill-rule:evenodd;stroke:#4d4d4d;stroke-width:1px;stroke-linecap:butt;stroke-linejoin:miter;stroke-opacity:1" />
    <path
       id="path16452-9"
       d="m 1.0000001,1048.8622 20.0000019,0"
       style="fill:none;fill-rule:evenodd;stroke:#4d4d4d;stroke-width:1px;stroke-linecap:butt;stroke-linejoin:miter;stroke-opacity:1" />
    <path
       id="path16642-2"
       d="m 1.0000001,1050.8622 2.0000005,0"
       style="fill:none;fill-rule:evenodd;stroke:#4d4d4d;stroke-width:1px;stroke-linecap:butt;stroke-linejoin:miter;stroke-opacity:1" />
    <path
       id="path16646-2"
       d="m 4.0000002,1050.8622 1,0"
       style="fill:none;fill-rule:evenodd;stroke:#4d4d4d;stroke-width:1px;stroke-linecap:butt;stroke-linejoin:miter;stroke-opacity:1" />
    <path
       id="path16648-1"
       d="m 5.9999996,1050.8622 3,0"
       style="fill:#000000;fill-opacity:1;fill-rule:evenodd;stroke:#4d4d4d;stroke-width:1px;stroke-linecap:butt;stroke-linejoin:miter;stroke-opacity:1" />
    <path
       id="path16689"
       d="m 14.500001,1034.3622 0,14"
       style="fill:none;fill-rule:evenodd;stroke:#4d4d4d;stroke-width:1px;stroke-linecap:butt;stroke-linejoin:miter;stroke-opacity:1" />
    <path
       id="path16691"
       d="m 1.4409357,1041.1878 c 0,0 0.5988101,-1.8552 1.0292397,-2.672 0.3261256,-0.6188 0.7087104,-1.1999 1.157895,-1.6524 0.4939434,-0.4977 0.9350065,-1.0195 1.4923977,-0.9845 0.5223194,0.033 0.9924965,0.6942 1.3380118,1.2657 0.4598496,0.7604 0.6787675,1.7577 0.8748539,2.7071 0.4263632,1.3658 0.612455,2.779 1.1064328,3.9026 0.5694016,1.0532 1.1708036,2.2489 2.0584794,2.7423 0.349568,0.1942 0.783505,0.1972 1.132164,0 0.448266,-0.2537 1.02924,-1.4064 1.02924,-1.4064"
       style="fill:none;fill-rule:evenodd;stroke:#da4453;stroke-width:0.99999994px;stroke-linecap:butt;stroke-linejoin:miter;stroke-opacity:1" />
    <path
       id="path16691-2"
       d="m 1.1982913,1043.0775 c 0,0 1.6992982,-0.573 2.8046787,-2.0802 0.5658332,-0.7715 1.2490612,-2.5379 1.9040939,-3.6337 0.359783,-0.6019 0.9043006,-1.4477 1.4409357,-1.4477 0.5366351,0 1.3020813,0.676 1.8526316,1.4716 0.5505503,0.7956 0.9984958,1.9005 1.6210528,3.6592 0.622557,1.7587 0.940914,5.7592 1.904094,6.6963"
       style="fill:none;fill-rule:evenodd;stroke:#4d4d4d;stroke-width:0.99999994px;stroke-linecap:butt;stroke-linejoin:miter;stroke-opacity:1" />
  </g>
</svg>
