<?xml version="1.0" encoding="UTF-8" standalone="no"?>
<!-- Created with Inkscape (http://www.inkscape.org/) -->

<svg
   xmlns:dc="http://purl.org/dc/elements/1.1/"
   xmlns:cc="http://creativecommons.org/ns#"
   xmlns:rdf="http://www.w3.org/1999/02/22-rdf-syntax-ns#"
   xmlns:svg="http://www.w3.org/2000/svg"
   xmlns="http://www.w3.org/2000/svg"
   xmlns:sodipodi="http://sodipodi.sourceforge.net/DTD/sodipodi-0.dtd"
   xmlns:inkscape="http://www.inkscape.org/namespaces/inkscape"
   width="22"
   height="22"
   id="svg2"
   version="1.1"
   inkscape:version="0.91 r13725"
   sodipodi:docname="musrStep-22x22-dark.svg">
  <defs
     id="defs4">
    <inkscape:perspective
       sodipodi:type="inkscape:persp3d"
       inkscape:vp_x="0 : 526.18109 : 1"
       inkscape:vp_y="0 : 1000 : 0"
       inkscape:vp_z="744.09448 : 526.18109 : 1"
       inkscape:persp3d-origin="372.04724 : 350.78739 : 1"
       id="perspective10" />
    <inkscape:perspective
       id="perspective3600"
       inkscape:persp3d-origin="0.5 : 0.33333333 : 1"
       inkscape:vp_z="1 : 0.5 : 1"
       inkscape:vp_y="0 : 1000 : 0"
       inkscape:vp_x="0 : 0.5 : 1"
       sodipodi:type="inkscape:persp3d" />
  </defs>
  <sodipodi:namedview
     id="base"
     pagecolor="#ffffff"
     bordercolor="#666666"
     borderopacity="1.0"
     inkscape:pageopacity="0.0"
     inkscape:pageshadow="2"
     inkscape:zoom="29.227273"
     inkscape:cx="8.7240614"
     inkscape:cy="11"
     inkscape:document-units="px"
     inkscape:current-layer="layer1"
     showgrid="true"
     inkscape:window-width="1640"
     inkscape:window-height="901"
     inkscape:window-x="112"
     inkscape:window-y="269"
     inkscape:window-maximized="0">
    <inkscape:grid
       type="xygrid"
       id="grid2816"
       empspacing="5"
       visible="true"
       enabled="true"
       snapvisiblegridlinesonly="true" />
  </sodipodi:namedview>
  <metadata
     id="metadata7">
    <rdf:RDF>
      <cc:Work
         rdf:about="">
        <dc:format>image/svg+xml</dc:format>
        <dc:type
           rdf:resource="http://purl.org/dc/dcmitype/StillImage" />
        <dc:title />
      </cc:Work>
    </rdf:RDF>
  </metadata>
  <g
     inkscape:label="Layer 1"
     inkscape:groupmode="layer"
     id="layer1"
     transform="translate(0,-1030.3622)">
    <path
       sodipodi:type="arc"
       style="fill:#d2d2d2;fill-opacity:1;stroke:#d2d2d2;stroke-width:0;stroke-miterlimit:4;stroke-opacity:1;stroke-dasharray:none;stroke-dashoffset:0"
       id="path2818"
       sodipodi:cx="3.5"
       sodipodi:cy="10.5"
       sodipodi:rx="1.5"
       sodipodi:ry="1.5"
       d="M 5,10.5 A 1.5,1.5 0 0 1 3.5,12 1.5,1.5 0 0 1 2,10.5 1.5,1.5 0 0 1 3.5,9 1.5,1.5 0 0 1 5,10.5 Z"
       transform="matrix(1.3333333,0,0,1.3333333,-0.66666667,1027.3622)" />
    <path
       sodipodi:type="arc"
       style="fill:#d2d2d2;fill-opacity:1;stroke:#000000;stroke-width:0;stroke-miterlimit:4;stroke-opacity:1;stroke-dasharray:none;stroke-dashoffset:0"
       id="path2818-2"
       sodipodi:cx="3.5"
       sodipodi:cy="10.5"
       sodipodi:rx="1.5"
       sodipodi:ry="1.5"
       d="M 5,10.5 A 1.5,1.5 0 0 1 3.5,12 1.5,1.5 0 0 1 2,10.5 1.5,1.5 0 0 1 3.5,9 1.5,1.5 0 0 1 5,10.5 Z"
       transform="matrix(1.3333333,0,0,1.3333333,13.333333,1027.3622)" />
    <path
       style="fill:none;stroke:#d2d2d2;stroke-width:1px;stroke-linecap:butt;stroke-linejoin:miter;stroke-opacity:1"
       d="m 4,2 0,18 0,0"
       id="path3635"
       transform="translate(0,1030.3622)" />
    <path
       style="fill:none;stroke:#d2d2d2;stroke-width:1px;stroke-linecap:butt;stroke-linejoin:miter;stroke-opacity:1"
       d="m 18,14 0,-6 0,0"
       id="path3637"
       transform="translate(0,1030.3622)" />
    <path
       style="fill:none;stroke:#d2d2d2;stroke-width:1px;stroke-linecap:butt;stroke-linejoin:miter;stroke-opacity:1"
       d="M 2,2 6,2 6,2"
       id="path3639"
       transform="translate(0,1030.3622)" />
    <path
       style="fill:none;stroke:#d2d2d2;stroke-width:1px;stroke-linecap:butt;stroke-linejoin:miter;stroke-opacity:1"
       d="m 2,20 4,0"
       id="path3641"
       transform="translate(0,1030.3622)" />
    <path
       style="fill:none;stroke:#d2d2d2;stroke-width:1px;stroke-linecap:butt;stroke-linejoin:miter;stroke-opacity:1"
       d="m 16,14 4,0"
       id="path3643"
       transform="translate(0,1030.3622)" />
    <path
       style="fill:none;stroke:#d2d2d2;stroke-width:1px;stroke-linecap:butt;stroke-linejoin:miter;stroke-opacity:1"
       d="m 16,8 4,0"
       id="path3645"
       transform="translate(0,1030.3622)" />
    <path
       style="fill:none;stroke:#da4453;stroke-width:0.75;stroke-linecap:round;stroke-linejoin:miter;stroke-opacity:1;fill-opacity:1;stroke-miterlimit:4;stroke-dasharray:none"
       d="m 14,11 1,-2 -4,-3 0,-2 -4,7 4,7 0,-2 4,-3 -1,-2"
       id="path3695"
       transform="translate(0,1030.3622)" />
  </g>
</svg>
